<?xml version="1.0" encoding="UTF-8"?>
<svg version="1.1" xmlns="http://www.w3.org/2000/svg" width="3840" height="2160">
<path d="M0 0 C0.52561523 0.43086914 1.05123047 0.86173828 1.59277344 1.30566406 C12.65737696 10.41807584 23.15466792 20.07888109 33.3125 30.1875 C33.97032471 30.84065186 34.62814941 31.49380371 35.3059082 32.16674805 C39.73894305 36.61434498 43.92707947 41.22144204 48 46 C48.54470947 46.63800537 49.08941895 47.27601074 49.65063477 47.93334961 C106.57907563 115.1260452 138.71407167 198.81569738 163 394 C163.01659668 395.02657715 163.03319336 396.0531543 163.05029297 397.11083984 C163.14071478 403.74288899 163.10992232 410.36837559 163 417 C162.98211426 418.1044043 162.96422852 419.20880859 162.94580078 420.34667969 C162.02314296 469.3350956 156.85118843 518.00183127 147 566 C146.86291626 566.66950684 146.72583252 567.33901367 146.58459473 568.02880859 C137.90328845 610.14193289 123.9999309 651.42566544 105 690 C104.48856445 691.0420459 103.97712891 692.0840918 103.45019531 693.15771484 C84.39725204 731.64940865 59.63297816 765.27753259 29.45556641 795.71865845 C28.0447759 797.14231573 26.63756205 798.56951459 25.23046875 799.99682617 C19.1332887 806.10109343 12.7720084 811.65821048 6 817 C5.40815918 817.47671143 4.81631836 817.95342285 4.20654297 818.44458008 C-52.41906014 863.99529027 -123.81428462 887.20243883 -196.125 887.25 C-197.05141296 887.25067474 -197.97782593 887.25134949 -198.93231201 887.25204468 C-260.47164405 887.18115752 -336.93355704 867.06644296 -382 822 C-382.00423194 823.23295775 -382.00846388 824.46591551 -382.01282406 825.73623562 C-382.11431397 855.25050871 -382.22016299 884.76476302 -382.33111694 914.27900189 C-382.34488043 917.9411281 -382.35860844 921.60325444 -382.37231445 925.26538086 C-382.37504276 925.99420011 -382.37777106 926.72301936 -382.38058204 927.47392405 C-382.4242134 939.15169333 -382.46499476 950.8294708 -382.50465261 962.50725418 C-382.54565451 974.56134526 -382.58988158 986.61542166 -382.63687855 998.66949087 C-382.66307166 1005.40986819 -382.6878514 1012.15024297 -382.70907402 1018.89063835 C-382.81529014 1052.27044728 -383.18686416 1085.6295453 -384 1119 C-433.50014827 1129.52850572 -433.50014827 1129.52850572 -456.30395508 1134.37426758 C-457.75616504 1134.68286592 -459.20837483 1134.99146507 -460.66058445 1135.30006504 C-462.12660279 1135.61159841 -463.59262115 1135.9231317 -465.05863953 1136.23466492 C-466.15391715 1136.4674148 -466.15391715 1136.4674148 -467.27132159 1136.70486671 C-471.01519459 1137.50044862 -474.75907132 1138.29601295 -478.50295448 1139.09154701 C-497.21205737 1143.06709552 -515.9202479 1147.04689246 -534.62713432 1151.03285789 C-546.89162698 1153.64605192 -559.15670238 1156.25649906 -571.42219734 1158.86498451 C-579.51658155 1160.58653241 -587.61042565 1162.31057964 -595.70362085 1164.0377087 C-601.25686598 1165.22256707 -606.81073578 1166.40446567 -612.36510664 1167.58403546 C-615.57646458 1168.26612373 -618.78742244 1168.95000564 -621.99783134 1169.636549 C-625.47913631 1170.38081972 -628.96146044 1171.12011907 -632.4440918 1171.8581543 C-633.46476368 1172.07761593 -634.48543556 1172.29707756 -635.5370369 1172.52318954 C-636.46939037 1172.71970737 -637.40174385 1172.9162252 -638.36235046 1173.11869812 C-639.16712672 1173.29011165 -639.97190298 1173.46152517 -640.8010664 1173.63813305 C-643 1174 -643 1174 -647 1174 C-647 769.09 -647 364.18 -647 -53 C-570.44 -53 -493.88 -53 -415 -53 C-412.03 -39.14 -409.06 -25.28 -406 -11 C-403.52865648 0.00694332 -403.52865648 0.00694332 -401 11 C-400.57154785 10.5563208 -400.1430957 10.1126416 -399.70166016 9.65551758 C-395.79909112 5.67459869 -391.80137686 2.07057581 -387.375 -1.3125 C-386.76873779 -1.78051025 -386.16247559 -2.24852051 -385.5378418 -2.73071289 C-384.29098279 -3.69289052 -383.04286241 -4.65343589 -381.79345703 -5.61230469 C-380.13775749 -6.89340953 -378.50158456 -8.19486851 -376.87109375 -9.5078125 C-362.39403717 -21.00810521 -346.36047081 -30.44128142 -330 -39 C-329.27973633 -39.37721191 -328.55947266 -39.75442383 -327.81738281 -40.14306641 C-238.28405998 -86.31056211 -125.62609949 -77.98211895 0 0 Z M-363 196 C-363.52819336 196.42958008 -364.05638672 196.85916016 -364.60058594 197.30175781 C-375.65253283 205.5024039 -375.65253283 205.5024039 -384 216 C-384.09061751 217.81096826 -384.1148839 219.62537245 -384.10955811 221.43859863 C-384.10867943 222.61849869 -384.10780075 223.79839874 -384.10689545 225.01405334 C-384.10089249 226.35376997 -384.09488277 227.69348656 -384.08886719 229.03320312 C-384.08630519 230.47570212 -384.08426089 231.91820211 -384.08267975 233.36070251 C-384.07831382 236.58182433 -384.07097292 239.80292177 -384.06150055 243.02403259 C-384.03701805 251.4580126 -384.02702776 259.89201601 -384.01732206 268.32602406 C-384.01485787 270.46082486 -384.01221279 272.59562546 -384.00939989 274.73042583 C-383.98399799 294.95984232 -384.03287297 315.18868583 -384.09570312 335.41796875 C-384.15723526 355.27205084 -384.21088185 375.12604133 -384.22229004 394.98022461 C-384.22277499 395.8239458 -384.22325994 396.66766698 -384.22375959 397.53695548 C-384.22839354 406.14400691 -384.23071954 414.75105711 -384.23058841 423.35810977 C-384.23057969 427.71041963 -384.2310941 432.06272929 -384.23193359 436.41503906 C-384.23209097 437.2797002 -384.23224835 438.14436133 -384.23241049 439.03522432 C-384.23625502 453.24167261 -384.28307546 467.44769951 -384.34402815 481.65400404 C-384.40643982 496.42383587 -384.42340287 511.19321743 -384.39809489 525.96316195 C-384.38404114 534.98865956 -384.40467321 544.01263595 -384.47190216 553.03790063 C-384.51423907 559.17393948 -384.51236286 565.30897584 -384.47584674 571.44504815 C-384.45614295 574.97211331 -384.45547188 578.49635757 -384.50784111 582.0231514 C-385.38885937 598.02486747 -385.38885937 598.02486747 -378.91385436 611.934443 C-376.44510471 614.23236473 -373.79697451 616.12120148 -371 618 C-368.86601344 619.6949479 -366.78181412 621.4432645 -364.6875 623.1875 C-338.64041158 643.10401869 -305.74228982 654.09259243 -273 655 C-272.16952148 655.02578125 -271.33904297 655.0515625 -270.48339844 655.078125 C-237.99033024 655.96379636 -208.16957805 649.12774258 -182 629 C-180.60587891 627.93845703 -180.60587891 627.93845703 -179.18359375 626.85546875 C-167.12838929 617.33820207 -157.04665985 606.36964585 -148 594 C-147.59072266 593.44570312 -147.18144531 592.89140625 -146.75976562 592.3203125 C-116.56887324 550.89899155 -104.53943872 499.08156186 -99 449 C-98.84096191 447.56974487 -98.84096191 447.56974487 -98.67871094 446.1105957 C-97.57545659 434.30597186 -97.75605929 422.40738712 -97.75 410.5625 C-97.74932526 409.3791507 -97.74865051 408.19580139 -97.74795532 406.97659302 C-97.76441549 388.7933329 -98.27098119 371.00619922 -101 353 C-101.17160645 351.83936035 -101.34321289 350.6787207 -101.52001953 349.48291016 C-110.47758651 290.65434918 -133.60293193 226.8756313 -183 190 C-234.30042161 152.34499907 -313.55882467 155.70913175 -363 196 Z " fill="#665BFF" transform="translate(2821,694)"/>
<path d="M0 0 C1.22189529 -0.00101212 1.22189529 -0.00101212 2.46847534 -0.00204468 C90.47742498 0.11201593 173.88798388 29.5796155 239.125 89.25 C240.13997377 90.16088242 241.15562626 91.071009 242.171875 91.98046875 C247.14040055 96.44711522 251.9477365 100.92392408 256.2421875 106.05859375 C258.16757934 108.29955811 260.18643956 110.43493859 262.22314453 112.57446289 C269.85816618 120.64043476 276.53845619 129.31891186 283.125 138.25 C283.57085449 138.84925293 284.01670898 139.44850586 284.47607422 140.06591797 C321.08803085 189.40267614 345.04805908 246.97439852 360.125 306.25 C360.41181641 307.3740625 360.69863281 308.498125 360.99414062 309.65625 C373.44349694 359.12820191 379.53153435 410.2213304 380.76171875 461.18359375 C380.78315319 462.04509411 380.80458763 462.90659447 380.8266716 463.7942009 C381.31536777 484.38404448 380.87956357 504.93961612 380.3248291 525.52355957 C380.22304031 529.40232681 380.13210712 533.28132021 380.04124641 537.16035652 C379.95207128 540.93855665 379.8584189 544.71663439 379.76317978 548.49468613 C379.71843578 550.27517336 379.67458422 552.05568328 379.63168716 553.83621597 C379.57137459 556.29475275 379.50551424 558.75307786 379.43798828 561.21142578 C379.41297241 562.28330139 379.41297241 562.28330139 379.38745117 563.37683105 C379.25880889 567.78963723 378.75605588 571.83260887 378.125 576.25 C208.835 576.25 39.545 576.25 -134.875 576.25 C-127.67684055 623.03803643 -114.35184518 666.66963387 -75.26855469 696.47509766 C-58.79531056 708.53603641 -40.38160137 717.38190493 -20.875 723.25 C-20.09979004 723.48412598 -19.32458008 723.71825195 -18.52587891 723.95947266 C-9.27552003 726.69231189 0.07039982 728.7385093 9.5625 730.4375 C10.4181958 730.5924292 11.2738916 730.7473584 12.15551758 730.90698242 C15.13971034 731.41144199 18.12581481 731.84330512 21.125 732.25 C21.77204895 732.33827057 22.4190979 732.42654114 23.08575439 732.51748657 C38.68562434 734.56248632 54.30697041 734.61006981 70.01530457 734.56805801 C72.15217159 734.56242842 74.2890307 734.55960038 76.42590332 734.55697632 C97.41094084 734.51953042 118.23301709 734.06987967 139.0814209 731.5 C141.20987314 731.2396171 143.33955465 730.99198739 145.46972656 730.74609375 C177.46063209 727.0097552 209.37214279 720.91030854 240.125 711.25 C241.11503021 710.9396582 241.11503021 710.9396582 242.12506104 710.62304688 C267.8073356 702.55040317 292.56042123 693.21577573 316.72045898 681.24560547 C317.52298096 680.85131348 318.32550293 680.45702148 319.15234375 680.05078125 C319.85093506 679.70184814 320.54952637 679.35291504 321.26928711 678.9934082 C323.125 678.25 323.125 678.25 326.125 678.25 C326.125 747.88 326.125 817.51 326.125 889.25 C257.59091653 924.78619143 186.9588016 946.60366772 110.125 954.25 C109.39714294 954.32412109 108.66928589 954.39824219 107.91937256 954.47460938 C19.80710645 963.37738429 -73.16496942 957.33445045 -247.875 867.25 C-252.40290323 863.46321806 -256.83893307 859.57474119 -261.2578125 855.66186523 C-262.86365693 854.25990293 -264.4936719 852.89323088 -266.13671875 851.53515625 C-268.88653175 849.2403765 -271.3766748 846.8140706 -273.875 844.25 C-274.638125 843.528125 -275.40125 842.80625 -276.1875 842.0625 C-277.875 840.25 -277.875 840.25 -277.875 838.25 C-278.535 838.25 -279.195 838.25 -279.875 838.25 C-281.25 836.88671875 -281.25 836.88671875 -282.875 834.9375 C-285.78222476 831.51048037 -288.76396804 828.17718485 -291.8125 824.875 C-354.96517066 755.36913274 -385.13610684 660.3927637 -400.46484375 443.84661865 C-396.02552932 357.30310863 -374.59849039 268.71739763 -252.875 95.25 C-250.10449043 92.80063505 -247.230405 90.49379678 -244.32421875 88.20703125 C-242.05045374 86.3901951 -239.93816269 84.48587056 -237.8125 82.5 C-230.68951595 76.10333096 -222.70940808 70.72813117 -214.875 65.25 C-214.22192871 64.79302734 -213.56885742 64.33605469 -212.89599609 63.86523438 C-198.28640099 53.71743656 -182.85523296 44.88359406 -166.82128906 37.19287109 C-164.89778431 36.26103776 -162.99166881 35.29960919 -161.0859375 34.33203125 C-126.58631343 17.10596442 -87.68711894 7.54248751 -49.5625 2.9375 C-48.55487106 2.81539658 -48.55487106 2.81539658 -47.52688599 2.69082642 C-31.69311378 0.80508292 -15.93135418 0.01209048 0 0 Z M-85.875 246.25 C-86.71546875 246.95769531 -87.5559375 247.66539062 -88.421875 248.39453125 C-120.61337725 276.13720788 -133.29100387 318.45243447 -137.875 359.25 C-138.205 366.84 -138.535 374.43 -138.875 382.25 C-49.445 382.25 39.985 382.25 132.125 382.25 C132.125 332.93277137 120.01508246 284.54180734 84.875 248.5 C62.37211588 226.13713382 30.99187452 214.5928409 -0.49365234 214.22265625 C-32.07328893 214.58526844 -62.12029523 225.37354933 -85.875 246.25 Z " fill="#665BFF" transform="translate(3430.875,623.75)"/>
<path d="M0 0 C1.0698111 0.00060425 2.13962219 0.0012085 3.24185181 0.00183105 C84.04604999 0.12480358 163.04823799 13.51337022 239.30859375 40.20703125 C239.95832153 40.43383575 240.60804932 40.66064026 241.27746582 40.89431763 C247.78321938 43.193758 254.17648974 45.70730374 260.625 48.1875 C260.625 130.0275 260.625 211.8675 260.625 296.1875 C256.34192546 294.75980849 252.79009995 293.38532166 248.8203125 291.38671875 C247.69681396 290.82839355 246.57331543 290.27006836 245.41577148 289.69482422 C244.82061737 289.39864197 244.22546326 289.10245972 243.61227417 288.79730225 C216.47349539 275.35666229 188.41162673 264.92693146 159.56005859 255.8001709 C157.80061386 255.24310219 156.04279156 254.68091572 154.28515625 254.11816406 C115.04676186 241.65525401 73.59524748 234.59377099 32.625 231.1875 C31.82223633 231.11692383 31.01947266 231.04634766 30.19238281 230.97363281 C-3.43841008 228.09099342 -45.03559399 226.75358216 -73.375 248.1875 C-83.33425878 257.03591838 -87.63972233 269.14761758 -88.58984375 282.12109375 C-89.04227117 296.03776113 -84.65331113 308.13222864 -75.75 318.8125 C-67.61340629 327.45763081 -57.56351085 333.65611576 -47.16845703 339.22558594 C-45.46742012 340.13793081 -43.77823432 341.07227147 -42.08984375 342.0078125 C-15.67828408 355.9886824 13.48728803 364.67735864 41.68040752 374.2982378 C104.27598908 395.66024954 168.58022637 417.9703299 220.625 460.1875 C221.594375 460.95320313 222.56375 461.71890625 223.5625 462.5078125 C239.14990581 475.19246161 254.04163331 489.7169786 265.625 506.1875 C266.09131836 506.83654297 266.55763672 507.48558594 267.03808594 508.15429688 C298.37491437 552.03821835 312.33506086 604.94744383 312.01611328 658.48974609 C311.99999946 661.68760785 312.01610704 664.88420655 312.03515625 668.08203125 C312.09800011 727.93680698 293.50207616 788.39445099 255.625 835.1875 C254.94566406 836.05890625 254.26632812 836.9303125 253.56640625 837.828125 C243.7755273 850.19165456 232.75667564 862.1021311 220.625 872.1875 C220.09648438 872.62835937 219.56796875 873.06921875 219.0234375 873.5234375 C188.48347862 898.85927782 153.86266597 918.11970689 116.39941406 931.21728516 C113.78795141 932.13051576 111.18697088 933.06929305 108.5859375 934.01171875 C70.37513731 947.57891151 29.86883582 953.69996095 -10.375 957.1875 C-11.55803711 957.2920752 -12.74107422 957.39665039 -13.95996094 957.50439453 C-28.06930093 958.56649001 -42.23392977 958.43339249 -56.375 958.4375 C-57.07238659 958.43794186 -57.76977318 958.43838371 -58.48829269 958.43883896 C-82.22713191 958.44670929 -105.76400063 957.80421705 -129.375 955.1875 C-130.1509552 955.10264343 -130.9269104 955.01778687 -131.72637939 954.93035889 C-166.4375999 951.10200041 -200.7606853 944.9251987 -234.56835938 936.17285156 C-237.01312697 935.54002178 -239.45961916 934.91379705 -241.90820312 934.29589844 C-330.7751673 911.7873327 -330.7751673 911.7873327 -344.375 898.1875 C-344.47134644 896.84265348 -344.49871962 895.49278528 -344.49804783 894.14449215 C-344.50003888 893.26816881 -344.50202993 892.39184547 -344.50408131 891.48896688 C-344.50116847 890.5152517 -344.49825563 889.54153652 -344.49525452 888.53831482 C-344.49610894 887.51248875 -344.49696337 886.48666268 -344.49784368 885.42975098 C-344.49950157 881.96413634 -344.49397209 878.49856923 -344.48852539 875.03295898 C-344.48824356 872.55993654 -344.48840117 870.086914 -344.4889679 867.6138916 C-344.48919622 862.27511919 -344.4863448 856.93636181 -344.48073006 851.59759331 C-344.47261727 843.87854705 -344.47000006 836.1595067 -344.46874207 828.44045664 C-344.4665512 815.91806475 -344.45989017 803.39567937 -344.45043945 790.87329102 C-344.44126623 778.70597364 -344.43418496 766.53865803 -344.42993164 754.37133789 C-344.42966892 753.62186472 -344.42940619 752.87239156 -344.42913551 752.10020708 C-344.42783051 748.34047584 -344.42656679 744.58074459 -344.42532361 740.82101333 C-344.41494991 709.60983749 -344.39725653 678.39866973 -344.375 647.1875 C-343.30456451 647.72317093 -342.23412903 648.25884186 -341.1312561 648.81074524 C-339.69769714 649.52789142 -338.26413366 650.24502859 -336.83056641 650.9621582 C-336.12851578 651.31351082 -335.42646515 651.66486343 -334.70314026 652.0268631 C-257.34691806 690.71891778 -173.7797708 722.51466637 -57.0625 730.5 C-55.78516495 730.50551376 -55.78516495 730.50551376 -54.48202515 730.51113892 C-39.13808879 730.54585496 -23.77419068 729.70839381 -8.8125 726.0625 C-7.94318848 725.85077148 -7.07387695 725.63904297 -6.17822266 725.42089844 C9.43847327 721.36631717 25.73801784 713.96431134 34.3515625 699.625 C42.24460492 684.51684519 44.93759087 669.09037556 40.6484375 652.4453125 C37.08885245 641.11441962 30.90996336 633.36517606 22.625 625.1875 C21.96628906 624.53007813 21.30757813 623.87265625 20.62890625 623.1953125 C-10.72589467 593.93083164 -60.00438647 581.44062774 -99.375 567.1875 C-228.17216464 520.52524175 -228.17216464 520.52524175 -276.375 477.1875 C-277.78995742 475.95636611 -279.20634369 474.72686977 -280.625 473.5 C-281.87537473 472.3962577 -283.12535786 471.29207166 -284.375 470.1875 C-285.16261719 469.50429687 -285.95023437 468.82109375 -286.76171875 468.1171875 C-298.21016684 458.05377371 -307.3904516 446.43377494 -316.375 434.1875 C-316.83052246 433.56746094 -317.28604492 432.94742187 -317.75537109 432.30859375 C-355.93395209 379.60854262 -362.05574344 308.75378633 -352.375 246.1875 C-343.81350286 195.35011336 -323.67543481 146.69377335 -288.45703125 108.453125 C-286.5505956 106.37857964 -284.7073439 104.26484069 -282.875 102.125 C-276.54298577 94.89256173 -269.73543326 88.4780623 -262.22265625 82.484375 C-260.36805286 80.98848091 -258.54041286 79.45832134 -256.74609375 77.890625 C-187.98405622 18.02950556 -88.40417597 -0.09292208 0 0 Z " fill="#665BFF" transform="translate(384.375,623.8125)"/>
<path d="M0 0 C0.02356728 23.67367013 0.04109433 47.34733845 0.05181217 71.02101803 C0.05692529 82.01800369 0.06387044 93.01498197 0.07543945 104.01196289 C0.08554128 113.61904502 0.09188944 123.2261218 0.09408849 132.8332091 C0.09536989 137.89995619 0.09828594 142.96668801 0.10573006 148.0334301 C0.11273782 152.84413054 0.11456932 157.65481008 0.11310768 162.46551514 C0.11337333 164.1914691 0.11522665 165.91742409 0.11920547 167.64337349 C0.16316565 187.77550772 -0.50888956 207.86447185 -1 228 C65 228 131 228 199 228 C199 302.25 199 376.5 199 453 C133 453 67 453 -1 453 C-0.88029788 520.20412336 -0.88029788 520.20412336 -0.7421875 587.40820312 C-0.72218133 596.48120085 -0.70229719 605.55419883 -0.68261719 614.62719727 C-0.68014575 615.76425277 -0.67767431 616.90130828 -0.67512798 618.07282001 C-0.63547567 636.39775597 -0.60270391 654.72269804 -0.57250018 673.04765173 C-0.54131813 691.872648 -0.50268016 710.69761846 -0.45720994 729.52258569 C-0.4294149 741.12609435 -0.4073432 752.72958428 -0.39273749 764.33311716 C-0.38214495 772.30448659 -0.36426989 780.27581962 -0.34083296 788.24716153 C-0.32754807 792.8370022 -0.31731557 797.42679215 -0.31578636 802.01665306 C-0.38684347 860.03800678 -0.38684347 860.03800678 27.4921875 909.49511719 C41.37586106 923.35181469 59.10409908 930.0395276 78 934 C79.17175781 934.24621094 80.34351563 934.49242187 81.55078125 934.74609375 C119.32866907 941.06419494 159.53653917 932.43274118 194.99829102 919.63916016 C197 919 197 919 199 919 C199 989.95 199 1060.9 199 1134 C187.98719227 1139.18249775 177.53864005 1143.89709938 166.0625 1147.625 C165.35522766 1147.85745422 164.64795532 1148.08990845 163.91925049 1148.32940674 C130.89246391 1159.14533129 96.56396006 1164.24004021 62 1167 C60.24562622 1167.14356934 60.24562622 1167.14356934 58.45581055 1167.29003906 C45.8782157 1168.20322596 33.29366872 1168.24337044 20.6875 1168.25 C19.53148285 1168.25067474 18.3754657 1168.25134949 17.18441772 1168.25204468 C0.26607697 1168.23636584 -16.28765186 1167.87694777 -33 1165 C-34.52705566 1164.75056641 -34.52705566 1164.75056641 -36.08496094 1164.49609375 C-65.71560033 1159.54696128 -93.59796201 1149.58228454 -120.25 1135.875 C-121.92823853 1135.01430908 -121.92823853 1135.01430908 -123.64038086 1134.13623047 C-130.47889371 1130.54566449 -136.77130732 1126.55795046 -143 1122 C-144.19156088 1121.16835431 -145.38532042 1120.33984286 -146.58203125 1119.515625 C-159.24436576 1110.63514856 -170.7374731 1100.58045363 -182 1090 C-182.65613281 1089.38640625 -183.31226563 1088.7728125 -183.98828125 1088.140625 C-189.13968294 1083.16685785 -193.53204731 1077.58300501 -198 1072 C-199.00740234 1070.77603516 -199.00740234 1070.77603516 -200.03515625 1069.52734375 C-249.66842157 1008.84253625 -258.53064007 935.95000138 -258.34225182 860.28857919 C-258.32398754 852.69734185 -258.32384431 845.10612471 -258.32369021 837.51486916 C-258.322834 823.19156036 -258.30723709 808.868301 -258.28344727 794.54501343 C-258.25950543 780.12690298 -258.24192067 765.70880719 -258.23217773 751.29067993 C-258.23155468 750.38225356 -258.23093163 749.47382719 -258.2302897 748.53787275 C-258.22774771 744.82787182 -258.22522186 741.11787088 -258.22272384 737.40786992 C-258.18781261 686.08120587 -258.10601148 634.75462648 -258.01925218 583.42802822 C-258.00380542 574.28286782 -257.98858915 565.13770705 -257.97348022 555.99254608 C-257.85355404 483.4398729 -257.72690821 410.88721203 -257 54 C-256.36062209 53.86373493 -255.72124418 53.72746985 -255.06249118 53.58707553 C-239.12884948 50.19124616 -223.19530952 46.79493987 -207.26186824 43.39817029 C-199.55497516 41.75518756 -191.84805332 40.11233999 -184.14105225 38.46986389 C-124.72803236 25.8079173 -65.33035266 13.07509836 -5.93953323 0.30942822 C-4 0 -4 0 0 0 Z " fill="#665BFF" transform="translate(1005,414)"/>
<path d="M0 0 C0 80.19 0 160.38 0 243 C-6.6 241.35 -13.2 239.7 -20 238 C-46.1909471 233.16218175 -75.85295588 232.18134602 -102 238 C-102.78600586 238.17160645 -103.57201172 238.34321289 -104.38183594 238.52001953 C-139.53708494 246.44801704 -177.3829775 265.07446625 -198 296 C-198.30033553 298.06983468 -198.30033553 298.06983468 -198.25480902 300.38011378 C-198.26073703 301.28274141 -198.26666503 302.18536904 -198.27277267 303.11534902 C-198.26912299 304.11018388 -198.26547331 305.10501874 -198.26171303 306.13000011 C-198.26770712 307.71804274 -198.26770712 307.71804274 -198.27382231 309.33816704 C-198.28487914 312.92155106 -198.28158371 316.50478277 -198.2784729 320.08818054 C-198.28347108 322.66877173 -198.28934545 325.24936134 -198.29602563 327.82994872 C-198.30917647 333.45905391 -198.31488512 339.088129 -198.31578636 344.71724892 C-198.31715987 353.08759522 -198.32992815 361.4578967 -198.3450741 369.82822803 C-198.37022456 383.90702797 -198.38607005 397.98582414 -198.39665604 412.06464195 C-198.40717134 426.00923156 -198.42179563 439.95380684 -198.44193649 453.898386 C-198.44318536 454.76464652 -198.44443423 455.63090704 -198.44572094 456.52341788 C-198.45208448 460.92251916 -198.45852171 465.32162033 -198.46498732 469.72072146 C-198.51067893 500.89884915 -198.54711417 532.0769815 -198.578125 563.25512695 C-198.60827719 593.54875368 -198.64261024 623.84237094 -198.68261719 654.13598633 C-198.68384819 655.06937669 -198.68507919 656.00276706 -198.6863475 656.96444198 C-198.6987141 666.33772818 -198.71116585 675.71101426 -198.72367998 685.08430026 C-198.74917195 704.17963805 -198.77409553 723.27497657 -198.79867554 742.37031555 C-198.79980645 743.24833426 -198.80093736 744.12635297 -198.80210253 745.0309783 C-198.83674401 771.9492537 -198.86897583 798.86753124 -198.89883423 825.78581238 C-198.89968306 826.55021781 -198.90053189 827.31462324 -198.90140645 828.10219248 C-198.93575604 859.06812673 -198.96755767 890.03406371 -199 921 C-286.12 921 -373.24 921 -463 921 C-463 617.07 -463 313.14 -463 0 C-387.76 0 -312.52 0 -235 0 C-225.73780488 41.67987805 -225.73780488 41.67987805 -222.05395508 59.01855469 C-221.56043682 61.33839587 -221.06365814 63.65751923 -220.56640625 65.9765625 C-220.42167374 66.6626358 -220.27694122 67.34870911 -220.12782288 68.05557251 C-219.36446159 71.62735905 -219.36446159 71.62735905 -218 75 C-217.05640625 73.44152344 -217.05640625 73.44152344 -216.09375 71.8515625 C-211.17024899 63.79729921 -206.09611575 56.22808309 -200 49 C-199.19949219 47.99324219 -198.39898438 46.98648438 -197.57421875 45.94921875 C-196.76597656 44.93472656 -195.95773437 43.92023437 -195.125 42.875 C-194.38507813 41.94429687 -193.64515625 41.01359375 -192.8828125 40.0546875 C-192.26148438 39.37664063 -191.64015625 38.69859375 -191 38 C-190.34 38 -189.68 38 -189 38 C-189 37.34 -189 36.68 -189 36 C-188.34 36 -187.68 36 -187 36 C-187 35.34 -187 34.68 -187 34 C-184.57126748 31.41717871 -181.7385111 29.24474925 -179 27 C-178.06671875 26.23042969 -177.1334375 25.46085938 -176.171875 24.66796875 C-157.41277514 9.70310894 -136.19827493 -0.08522736 -113 -6 C-111.84371094 -6.29648437 -110.68742187 -6.59296875 -109.49609375 -6.8984375 C-76.55932221 -14.60785564 -30.84397457 -15.42198728 0 0 Z " fill="#665BFF" transform="translate(1749,642)"/>
<path d="M0 0 C87.45 0 174.9 0 265 0 C265 303.93 265 607.86 265 921 C177.55 921 90.1 921 0 921 C0 617.07 0 313.14 0 0 Z " fill="#665BFF" transform="translate(1812,642)"/>
<path d="M0 0 C0 70.62 0 141.24 0 214 C-18.89031385 218.4077399 -37.76294463 222.74361999 -56.73046875 226.78125 C-59.22275803 227.31408951 -61.71498956 227.84719921 -64.20716858 228.3805542 C-70.15281808 229.65238422 -76.09897566 230.92181071 -82.04541975 232.18991971 C-93.90636744 234.71943094 -105.76611737 237.25455506 -117.62595749 239.78925323 C-120.48118956 240.39946208 -123.33645984 241.00949173 -126.19176102 241.61937714 C-145.5152111 245.74702294 -164.83267152 249.90141548 -184.14393044 254.08572388 C-187.95360157 254.91097796 -191.76346623 255.7353319 -195.57341003 256.55932617 C-196.80067086 256.82476227 -198.02793169 257.09019836 -199.29238224 257.36367798 C-201.72471486 257.8897304 -204.15705412 258.41575216 -206.58940029 258.94174194 C-213.65226996 260.46966285 -220.71383355 262.0034591 -227.7745657 263.54122543 C-232.11267845 264.48456937 -236.45197225 265.42238408 -240.79162407 266.35861969 C-242.79755484 266.79264135 -244.8029656 267.2290742 -246.80781746 267.66805267 C-249.52064375 268.26180299 -252.23512233 268.84728838 -254.95019531 269.43066406 C-255.74587512 269.60697105 -256.54155493 269.78327805 -257.36134624 269.96492767 C-262.77183037 271.11408481 -262.77183037 271.11408481 -265 270 C-265 199.38 -265 128.76 -265 56 C-260.82250088 54.32900035 -256.94830477 53.22922414 -252.58422852 52.33374023 C-251.84392804 52.17799876 -251.10362757 52.02225729 -250.34089375 51.86179638 C-247.85443677 51.33979774 -245.36668152 50.82426996 -242.87890625 50.30859375 C-241.0795101 49.93201916 -239.28020635 49.55500282 -237.48098755 49.17758179 C-233.57487068 48.35901207 -229.6681971 47.54317244 -225.76107788 46.72940063 C-219.48596172 45.42224935 -213.21218938 44.10873394 -206.9387207 42.79370117 C-205.86372787 42.56836984 -204.78873503 42.3430385 -203.68116665 42.11087894 C-201.46621681 41.64657588 -199.25127235 41.18224712 -197.03633308 40.7178936 C-193.60189662 39.99805783 -190.16734343 39.27878103 -186.73277283 38.55958557 C-159.9839947 32.95674592 -133.24856762 27.29092503 -106.51343918 21.62340164 C-101.50760767 20.56242372 -96.50161587 19.50220332 -91.49561977 18.4420023 C-86.69059777 17.42425127 -81.88568942 16.40596435 -77.08080101 15.38758278 C-74.75852823 14.89548871 -72.43621356 14.40359225 -70.11385536 13.91190147 C-58.19346714 11.38797985 -46.2765686 8.84987611 -34.36962891 6.26318359 C-32.39428344 5.83520755 -30.41892668 5.40728358 -28.44355774 4.97941589 C-24.80651595 4.1914901 -21.17101041 3.39694854 -17.53630066 2.5983429 C-15.9302598 2.24980424 -14.3241686 1.90149746 -12.71801758 1.5534668 C-12.00216555 1.39415617 -11.28631351 1.23484554 -10.548769 1.07070732 C-6.86742619 0.27927053 -3.81930186 0 0 0 Z " fill="#665BFF" transform="translate(2077,292)"/>
</svg>
